<?xml version="1.0" standalone="no"?>
<!DOCTYPE svg PUBLIC "-//W3C//DTD SVG 20010904//EN"
 "http://www.w3.org/TR/2001/REC-SVG-20010904/DTD/svg10.dtd">
<svg version="1.0" xmlns="http://www.w3.org/2000/svg"
 width="1280.000000pt" height="880.000000pt" viewBox="0 0 1280.000000 880.000000"
 preserveAspectRatio="xMidYMid meet">
<g transform="translate(0.000000,880.000000) scale(0.100000,-0.100000)"
fill="#000000" stroke="none">
<path d="M5715 6514 c-373 -52 -635 -173 -855 -394 -189 -190 -303 -404 -361
-680 -24 -118 -32 -350 -14 -475 9 -68 9 -66 16 95 13 305 75 510 222 730 70
105 261 292 376 369 221 147 512 259 793 306 181 30 167 26 138 37 -26 11
-262 20 -315 12z"/>
<path d="M7065 6083 c-59 -115 -138 -265 -176 -335 -38 -69 -69 -133 -69 -142
0 -18 176 -426 190 -439 4 -5 41 93 81 217 46 144 77 226 86 226 7 0 13 -2 13
-6 0 -15 114 -430 120 -437 3 -4 54 91 113 211 l107 218 -176 347 c-96 191
-177 347 -179 347 -2 0 -51 -93 -110 -207z"/>
<path d="M6351 5838 c-18 -73 -52 -182 -76 -243 -46 -120 -202 -437 -352 -718
-111 -207 -197 -417 -219 -537 -24 -124 -14 -333 20 -458 43 -153 133 -312
226 -396 52 -47 295 -208 375 -249 60 -30 143 -57 180 -57 15 0 10 9 -27 48
-180 186 -238 333 -211 535 24 177 105 340 302 605 277 373 391 575 376 666
-25 162 -184 513 -302 670 -64 85 -235 266 -251 266 -5 0 -23 -60 -41 -132z"/>
<path d="M7917 5932 c-73 -63 -184 -190 -242 -277 -105 -157 -220 -419 -260
-589 -13 -55 -12 -64 6 -120 36 -108 151 -292 347 -555 257 -344 330 -513 320
-738 -8 -164 -49 -250 -190 -398 -76 -81 -75 -86 17 -61 127 34 423 223 530
338 159 172 243 456 215 732 -7 68 -21 138 -36 181 -14 39 -35 97 -46 130 -12
33 -57 128 -99 210 -178 340 -369 726 -403 814 -21 52 -53 156 -72 230 -19 74
-36 137 -38 139 -2 1 -24 -15 -49 -36z"/>
<path d="M5093 5858 c11 -45 36 -234 42 -323 9 -126 -10 -368 -53 -660 -32
-220 -36 -273 -36 -440 0 -164 3 -201 22 -270 77 -280 294 -530 638 -734 99
-60 271 -142 324 -155 22 -6 21 -4 -10 21 -162 130 -248 224 -320 350 -91 158
-115 292 -90 515 30 284 83 457 212 691 99 181 188 357 188 374 0 24 -374 388
-465 452 -107 75 -253 150 -349 180 -90 28 -110 28 -103 -1z"/>
<path d="M9180 5853 c-132 -35 -315 -141 -475 -274 -77 -65 -355 -348 -355
-363 0 -15 78 -172 139 -278 201 -352 265 -576 266 -928 0 -175 0 -175 -33
-256 -64 -160 -195 -326 -352 -447 -54 -41 -60 -48 -35 -43 83 20 276 119 425
219 238 160 413 357 495 559 84 207 88 382 20 848 -59 403 -61 665 -9 948 7
38 1 39 -86 15z"/>
<path d="M7142 5230 c-5 -14 -24 -63 -42 -110 -98 -254 -216 -463 -406 -717
-218 -291 -284 -447 -284 -672 0 -185 51 -319 168 -443 192 -202 525 -282 837
-202 271 71 470 263 521 504 38 179 -20 413 -155 634 -23 38 -93 137 -154 220
-225 307 -296 426 -454 766 -21 44 -21 45 -31 20z"/>
<path d="M2783 4975 c-471 -60 -845 -232 -1123 -515 -192 -197 -317 -438 -381
-740 -20 -90 -23 -136 -23 -315 -1 -177 3 -229 22 -328 87 -459 329 -852 687
-1117 472 -350 1057 -517 1745 -497 490 15 980 110 1555 302 416 139 747 277
1320 552 280 135 397 184 565 238 211 68 283 79 492 80 103 0 180 4 172 8 -7
4 -55 17 -106 28 -71 16 -129 21 -243 21 -276 0 -511 -55 -980 -233 -1101
-415 -1833 -603 -2530 -648 -757 -50 -1372 99 -1864 454 -329 237 -551 631
-593 1056 -45 451 169 896 557 1159 358 242 785 363 1280 363 290 1 512 -33
755 -113 63 -21 116 -36 118 -35 7 6 -90 58 -186 100 -184 81 -377 136 -592
170 -147 23 -502 28 -647 10z"/>
<path d="M4530 4395 c-47 -8 -143 -30 -214 -50 -391 -108 -619 -121 -961 -56
-55 11 -120 22 -144 26 l-43 7 42 -63 c60 -90 315 -340 438 -429 555 -406
1102 -583 2056 -664 190 -16 238 -11 160 19 -273 102 -565 344 -754 624 -93
138 -162 329 -176 490 -3 43 -10 85 -14 92 -13 19 -281 22 -390 4z"/>
<path d="M9453 4403 c-27 -4 -33 -9 -37 -36 -2 -18 -10 -70 -16 -117 -34 -248
-163 -481 -396 -714 -160 -159 -307 -261 -486 -336 -120 -50 -98 -54 167 -30
549 52 945 131 1280 257 253 95 595 292 813 468 111 90 260 240 333 338 33 44
58 81 55 84 -2 2 -67 -7 -143 -21 -207 -38 -332 -49 -478 -43 -155 7 -264 25
-445 74 -253 67 -296 74 -460 78 -85 2 -169 1 -187 -2z"/>
</g>
</svg>
